<svg width="19" height="19" viewBox="0 0 19 19" fill="none" xmlns="http://www.w3.org/2000/svg">
<path d="M13.6261 5.66895C13.6265 6.48956 13.3835 7.29185 12.9278 7.97431C12.4721 8.65677 11.8242 9.18874 11.0661 9.50291C10.3081 9.81709 9.47381 9.89934 8.66897 9.73927C7.86412 9.5792 7.12484 9.184 6.54465 8.60367C5.96446 8.02335 5.56944 7.28397 5.40956 6.47908C5.24969 5.67419 5.33214 4.83997 5.6465 4.08196C5.96085 3.32395 6.49298 2.67621 7.17555 2.22069C7.85812 1.76518 8.66047 1.52236 9.48108 1.52295C10.5804 1.52348 11.6346 1.96049 12.4118 2.73793C13.1891 3.51537 13.6258 4.56962 13.6261 5.66895V5.66895Z" stroke="#333333" stroke-width="1.5" stroke-linecap="round" stroke-linejoin="round"/>
<path d="M1.52344 17.7731C1.54692 15.6786 2.39543 13.6778 3.88482 12.2051C5.37421 10.7323 7.38432 9.90625 9.47894 9.90625C11.5735 9.90625 13.5837 10.7323 15.0731 12.2051C16.5624 13.6778 17.411 15.6786 17.4344 17.7731" stroke="#333333" stroke-width="1.5" stroke-linecap="round" stroke-linejoin="round"/>
</svg>
